<svg xmlns="http://www.w3.org/2000/svg" width="512" height="512" viewBox="0 0 512 512" preserveAspectRatio="xMidYMid meet">
<path fill="#FFFEFE" opacity="1.000000" stroke="none" d="
M229.000000,1.000001 
	C323.627441,1.000000 418.254883,1.000000 512.941162,1.000000 
	C512.941162,171.556702 512.941162,342.113434 512.941162,513.000000 
	C429.311615,513.000000 345.622772,513.000000 261.566711,512.605225 
	C262.788696,511.816132 264.375763,511.412872 265.967529,511.029114 
	C272.374268,509.484436 278.986816,508.512451 285.148590,506.289917 
	C299.061371,501.271545 310.888702,492.677277 322.251892,483.368652 
	C339.322083,469.384949 354.215637,453.315491 368.339111,436.076630 
	C368.755859,435.359558 368.924927,434.806732 369.359253,434.129211 
	C369.750458,433.669525 369.876373,433.334595 370.188049,432.719788 
	C371.825928,431.105804 373.514923,429.952698 374.694366,428.410034 
	C389.945923,408.461517 404.018799,387.723999 416.109222,365.689392 
	C433.279541,334.396820 448.841736,302.531982 452.429626,266.244904 
	C454.724457,243.035614 454.294250,220.262527 444.202026,198.553513 
	C439.612823,188.681839 434.114441,179.516251 426.112793,171.588913 
	C420.814606,166.647324 416.131378,161.253479 410.354095,157.580460 
	C402.374695,152.507401 393.570496,148.731598 384.912720,144.181641 
	C383.802795,143.634811 382.899689,143.306534 381.623047,142.887146 
	C376.501801,141.582443 371.754150,140.368881 366.870178,139.000870 
	C366.733887,138.846436 366.321960,138.841248 366.293182,138.889343 
	C366.264404,138.937454 366.276855,138.829956 366.034729,138.533997 
	C356.121918,136.815979 346.451263,135.393921 336.864471,133.660400 
	C337.421326,132.636719 337.894257,131.924484 338.679932,131.111176 
	C359.508240,113.148842 369.690002,90.868744 368.263702,63.443050 
	C367.752899,53.620613 362.422150,45.575275 350.772919,47.895741 
	C349.282837,48.280647 348.015869,48.777691 346.390167,49.284218 
	C345.353455,49.517872 344.675476,49.742039 343.663208,49.957199 
	C342.995026,50.221931 342.661133,50.495670 342.232941,50.756294 
	C342.138641,50.743183 342.009521,50.883186 341.619781,50.883736 
	C334.940979,54.529057 328.651947,58.173824 322.263550,61.798286 
	C322.164185,61.777981 322.033447,61.933075 321.741730,61.955662 
	C321.238800,62.288963 321.027557,62.599678 320.864594,62.911671 
	C320.912872,62.912952 320.877991,62.822918 320.557281,62.943321 
	C316.810181,66.024727 313.383759,68.985733 309.686951,72.033867 
	C308.918579,72.669083 308.420624,73.217163 307.605103,73.889053 
	C301.541840,80.680725 295.796173,87.348602 289.866577,94.302788 
	C286.488770,99.916817 283.294891,105.244530 280.100983,110.572243 
	C278.726318,109.122986 278.319580,108.181915 278.437073,107.311638 
	C280.562195,91.572899 283.224579,75.966904 280.190033,59.918018 
	C275.483856,35.028477 262.393250,16.839865 239.473099,5.869117 
	C236.000732,4.207072 232.491943,2.621141 229.000000,1.000001 
	z"></path>
<path fill="#FFFFFE" opacity="1.000000" stroke="none" d="
M252.000000,513.000000 
	C168.370407,513.000000 84.740814,513.000000 1.055609,513.000000 
	C1.055609,342.446045 1.055609,171.892059 1.055609,1.000000 
	C74.354424,1.000000 147.709366,1.000000 221.490295,1.231647 
	C221.916306,1.463295 221.806702,1.921155 221.475784,2.020568 
	C214.983902,4.205093 213.579590,9.611664 212.045563,15.404917 
	C211.025909,21.254375 209.532135,26.678349 209.329330,32.150169 
	C209.009109,40.789932 209.555267,49.461811 209.786133,58.545097 
	C210.566086,62.644260 211.294617,66.318420 211.944122,70.426178 
	C213.039032,80.853058 215.659607,90.374725 221.073975,99.282379 
	C221.244186,99.704094 221.378250,99.840836 221.534363,100.310173 
	C222.274094,101.758049 222.991806,102.873344 223.652557,104.409698 
	C223.059921,105.446808 222.524246,106.062843 221.699768,106.454323 
	C218.355957,103.963760 215.338211,101.645409 212.239685,99.440559 
	C196.620789,88.326401 179.412170,82.071709 160.045944,82.887665 
	C156.480469,83.037880 152.654663,83.540298 149.472275,85.011780 
	C140.401718,89.205849 140.203888,92.407799 145.561523,101.953392 
	C152.443451,114.214836 162.823288,123.566193 172.940674,133.186905 
	C172.941544,133.301315 173.129822,133.431335 173.073868,133.568573 
	C173.017914,133.705811 173.147430,133.972809 172.753815,134.178558 
	C169.572357,134.722214 166.738052,134.845261 164.004898,135.436172 
	C153.651718,137.674515 143.331299,140.064468 132.667511,142.486542 
	C127.783073,144.329941 123.056114,145.736221 118.708641,147.903641 
	C105.045502,154.715454 93.031334,163.865997 83.401367,175.696732 
	C78.685326,181.490555 75.257690,188.333099 70.986923,194.888336 
	C69.026299,198.987976 67.325684,202.900284 65.331314,207.064789 
	C63.651150,213.573029 61.941055,219.778976 60.963043,226.098221 
	C59.827358,233.436234 58.966629,240.859863 58.688774,248.272644 
	C58.498726,253.342896 59.490177,258.460083 59.995766,263.552094 
	C60.142796,265.032867 60.369499,266.512939 60.672497,267.969879 
	C62.682594,277.635284 64.418449,287.372345 66.863747,296.927368 
	C68.436455,303.072723 71.066963,308.947388 73.228554,315.303925 
	C74.432716,318.251862 75.631668,320.839264 76.792572,323.710022 
	C77.219398,324.761871 77.684288,325.530396 78.179230,326.647705 
	C78.655891,327.776672 79.102501,328.556763 79.550217,329.361603 
	C79.551323,329.386322 79.519112,329.424377 79.599075,329.785278 
	C87.583679,345.242462 95.008453,360.616760 103.543159,375.348022 
	C110.505577,387.365509 118.794632,398.614380 126.582893,410.551636 
	C134.323730,420.709930 141.897430,430.584076 149.647278,440.317963 
	C165.478302,460.201935 183.540833,477.757477 204.213470,492.624725 
	C217.745056,502.356323 232.231430,509.533417 249.096039,511.123688 
	C250.113953,511.219666 251.034271,512.350586 252.000000,513.000000 
z"></path>
<path fill="#EA3132" opacity="1.000000" stroke="none" d="
M252.449982,513.000000 
	C251.034271,512.350586 250.113953,511.219666 249.096039,511.123688 
	C232.231430,509.533417 217.745056,502.356323 204.213470,492.624725 
	C183.540833,477.757477 165.478302,460.201935 149.647278,440.317963 
	C141.897430,430.584076 134.323730,420.709930 126.995468,410.496155 
	C127.874214,410.062469 128.427811,410.031860 129.095490,410.223145 
	C129.410950,410.724060 129.673843,410.920868 130.020096,411.327515 
	C130.357880,412.078400 130.673798,412.537262 131.136871,413.316711 
	C133.855225,415.768372 136.426392,417.899445 138.997910,420.398010 
	C138.998428,421.500610 138.998596,422.235657 139.053528,423.322937 
	C142.213928,427.342560 145.199127,431.120789 148.450333,434.654236 
	C155.166611,441.953369 161.985062,449.159882 168.834885,456.334412 
	C176.453690,464.314331 183.631195,472.828247 191.980301,479.963593 
	C198.987213,485.951874 207.122818,490.807770 215.269501,495.222443 
	C223.797333,499.843628 231.718994,506.613037 242.532959,505.445282 
	C243.294739,505.363068 244.140823,506.529572 245.023193,506.961029 
	C245.867844,507.374146 246.801178,507.804230 247.712601,507.844940 
	C250.335754,507.962128 252.967529,507.886292 255.595901,507.886292 
	C255.935211,508.429626 256.274536,508.972992 256.613831,509.516327 
	C257.699829,507.675507 258.785797,505.834686 259.931946,503.891876 
	C261.416504,505.936401 262.451691,507.362061 263.197174,508.388763 
	C266.219757,507.259918 268.732178,506.058197 271.380066,505.409485 
	C273.851685,504.803986 276.572388,505.141632 278.994629,504.425476 
	C282.562225,503.370697 286.003357,501.842010 289.416382,500.330139 
	C291.150269,499.562042 292.633087,497.695801 294.352905,497.517487 
	C302.598145,496.662659 307.394073,489.878967 314.050446,486.329803 
	C317.348602,484.571259 319.467865,480.725067 322.451721,478.217438 
	C325.173431,475.930115 328.776123,474.598511 331.221680,472.094727 
	C335.981323,467.221741 340.196808,461.817902 344.653046,456.647156 
	C345.389526,455.792572 346.151703,454.946777 346.991394,454.197021 
	C349.841003,451.652435 352.771515,449.197113 355.583832,446.612762 
	C356.622406,445.658417 357.241760,444.194489 358.359589,443.389893 
	C361.583649,441.069397 363.390442,438.281250 362.588135,434.138885 
	C361.907593,430.625183 363.788727,430.989319 366.061462,432.377319 
	C366.774902,433.892456 367.433167,435.066681 368.091431,436.240906 
	C354.215637,453.315491 339.322083,469.384949 322.251892,483.368652 
	C310.888702,492.677277 299.061371,501.271545 285.148590,506.289917 
	C278.986816,508.512451 272.374268,509.484436 265.967529,511.029114 
	C264.375763,511.412872 262.788696,511.816132 261.099731,512.605225 
	C258.299988,513.000000 255.599976,513.000000 252.449982,513.000000 
z"></path>
<path fill="#23644D" opacity="1.000000" stroke="none" d="
M221.806702,1.921156 
	C221.806702,1.921155 221.916306,1.463295 221.958160,1.231647 
	C224.041672,1.000000 226.083328,1.000000 228.562500,1.000001 
	C232.491943,2.621141 236.000732,4.207072 239.473099,5.869117 
	C262.393250,16.839865 275.483856,35.028477 280.190033,59.918018 
	C283.224579,75.966904 280.562195,91.572899 278.437073,107.311638 
	C278.319580,108.181915 278.726318,109.122986 280.100983,110.572243 
	C283.294891,105.244530 286.488770,99.916817 290.189606,94.296082 
	C291.127258,93.999733 291.557953,93.996399 291.956116,94.349068 
	C289.271240,99.669197 286.803741,104.747154 283.858063,109.530640 
	C282.929626,111.038353 280.719788,111.756989 279.096436,112.836754 
	C278.104889,110.975853 276.160614,109.049835 276.282623,107.265053 
	C276.890411,98.371651 278.443054,89.536880 278.919495,80.641647 
	C279.979736,60.847450 275.640076,42.586033 262.944061,26.709747 
	C256.261963,18.353798 248.232040,11.940709 238.486740,7.776059 
	C233.080093,5.465540 227.376465,3.849962 221.806702,1.921156 
z"></path>
<path fill="#196C54" opacity="1.000000" stroke="none" d="
M221.475784,2.020569 
	C227.376465,3.849962 233.080093,5.465540 238.486740,7.776059 
	C248.232040,11.940709 256.261963,18.353798 262.944061,26.709747 
	C275.640076,42.586033 279.979736,60.847450 278.919495,80.641647 
	C278.443054,89.536880 276.890411,98.371651 276.282623,107.265053 
	C276.160614,109.049835 278.104889,110.975853 279.096436,112.836754 
	C280.719788,111.756989 282.929626,111.038353 283.858063,109.530640 
	C286.803741,104.747154 289.271240,99.669197 292.149170,94.079147 
	C296.379700,88.965225 300.490601,84.565445 304.336487,79.945045 
	C305.838623,78.140434 306.744965,75.839890 307.922668,73.765244 
	C308.420624,73.217163 308.918579,72.669083 309.875854,72.285469 
	C313.849457,69.240929 317.363708,66.031914 320.877991,62.822910 
	C320.877991,62.822918 320.912872,62.912952 321.127716,62.834885 
	C321.572845,62.482231 321.803131,62.207645 322.033447,61.933067 
	C322.033447,61.933075 322.164185,61.777981 322.679443,61.842113 
	C329.343506,58.706329 335.499359,55.519695 341.619354,52.265545 
	C341.911774,52.110058 341.886719,51.357624 342.009521,50.883186 
	C342.009521,50.883186 342.138641,50.743183 342.647186,50.826752 
	C343.433380,50.938663 343.711029,50.967010 344.366516,50.999409 
	C345.500366,50.996071 346.256378,50.988682 347.308899,50.963779 
	C348.073883,50.630596 348.542389,50.314926 349.461975,49.999664 
	C350.909271,49.999477 351.905487,49.998234 352.901672,49.998390 
	C360.965454,49.999641 363.366760,51.259624 365.070740,59.298420 
	C367.179504,69.246841 365.941467,79.129707 363.310181,89.082710 
	C358.911743,105.720001 349.594299,118.849251 336.624115,130.060486 
	C334.997681,131.333023 333.707062,132.555084 333.002167,133.222534 
	C331.550629,131.749908 330.256348,130.436813 328.770111,128.929001 
	C328.824646,128.844543 329.443542,128.055618 329.870911,127.173851 
	C330.256500,126.378380 330.432434,125.481300 330.841583,124.182053 
	C325.205414,127.315529 324.236938,131.663040 328.496857,136.519363 
	C326.085541,137.089828 324.092743,137.367844 322.244629,138.042343 
	C319.215424,139.147934 316.183533,140.327637 313.337585,141.826920 
	C311.261414,142.920670 309.668793,145.241089 307.530945,145.842255 
	C303.533112,146.966446 299.251434,147.033478 295.168549,147.914230 
	C288.946381,149.256439 282.728210,154.607513 276.286194,146.211060 
	C277.647247,154.149658 272.243011,151.194809 270.113708,152.467728 
	C268.703278,150.413025 267.551453,148.735031 266.060120,146.562439 
	C265.426880,149.299820 265.031555,151.008789 264.509338,153.266220 
	C263.200531,151.741806 262.522919,150.952560 262.464844,150.884918 
	C259.268494,152.005753 256.468842,153.994171 254.309601,153.448502 
	C252.331924,152.948715 251.045929,149.712021 249.087845,147.212479 
	C247.767395,152.251068 244.660568,153.939941 239.865005,151.025604 
	C239.744095,150.952118 239.537796,151.026260 239.371902,151.018677 
	C232.186249,150.689407 225.002594,150.303955 217.814301,150.049881 
	C213.890167,149.911163 210.400314,149.452026 211.237946,143.666718 
	C206.442261,148.826675 204.960815,149.017181 198.941360,145.567734 
	C199.881348,144.450989 200.786499,143.375626 201.466339,142.567932 
	C200.557220,140.884140 199.778610,139.442062 199.369553,137.992294 
	C200.445496,137.471695 201.809265,136.579681 201.763580,136.500488 
	C199.869568,133.216125 197.849167,130.004654 195.844620,126.784027 
	C195.396454,127.070633 194.948273,127.357231 194.500092,127.643837 
	C196.000061,131.095886 197.500031,134.547943 198.644287,138.040085 
	C197.067856,139.229004 195.847153,140.377838 194.340317,141.795975 
	C192.857239,135.792236 188.137787,138.652542 184.140335,137.543304 
	C185.648468,136.710495 187.156601,135.877686 188.664734,135.044876 
	C188.685287,134.575790 188.705841,134.106689 188.726395,133.637604 
	C187.009796,133.428619 184.669510,132.408279 183.691513,133.160095 
	C180.535904,135.585907 178.440552,134.399185 176.067657,132.197540 
	C175.324646,131.508133 174.051422,131.390198 172.871475,130.711288 
	C169.462067,127.090614 166.333679,123.626366 162.914398,120.478073 
	C155.995041,114.107086 150.333206,106.815262 146.206055,98.376534 
	C143.420349,92.680656 144.337463,89.607788 149.902191,87.093292 
	C159.859329,82.594025 170.265320,84.642799 180.118134,86.806862 
	C194.336990,89.929863 206.841476,97.191475 218.127289,106.466545 
	C218.930237,107.126434 220.679398,106.634972 221.988586,106.678864 
	C222.524246,106.062843 223.059921,105.446808 223.913071,104.303635 
	C223.324478,102.510185 222.418396,101.243889 221.512329,99.977585 
	C221.378250,99.840836 221.244186,99.704094 221.333298,99.058426 
	C221.657639,98.074524 221.955795,97.538857 221.830917,97.133537 
	C219.233704,88.704300 216.619598,80.279770 213.899826,71.889648 
	C213.654861,71.133911 212.666367,70.619209 212.023163,69.992577 
	C211.294617,66.318420 210.566086,62.644260 210.156799,58.465889 
	C210.847183,57.495117 211.523849,57.041805 211.544754,56.560062 
	C212.059723,44.684757 212.552277,32.807884 212.916428,20.927235 
	C212.976685,18.961460 212.421310,16.976818 212.150452,15.000895 
	C213.579590,9.611664 214.983902,4.205093 221.475784,2.020569 
z"></path>
<path fill="#EA2E2F" opacity="1.000000" stroke="none" d="
M368.339111,436.076630 
	C367.433167,435.066681 366.774902,433.892456 366.374390,432.233856 
	C367.615601,431.134552 368.886841,430.735443 369.535950,429.869781 
	C373.794922,424.189789 377.994934,418.461639 382.057617,412.639984 
	C384.242371,409.509308 385.987000,406.071533 388.170624,402.939972 
	C389.963837,400.368378 392.339233,398.192749 394.048889,395.575287 
	C396.515015,391.799622 398.431335,387.663910 400.910156,383.897675 
	C404.411865,378.577301 408.524445,373.641815 411.806580,368.198486 
	C415.834259,361.518646 419.606873,354.635193 422.821411,347.537048 
	C424.306671,344.257507 424.206848,340.260071 424.847900,336.456421 
	C425.711914,337.173157 426.519531,337.843140 427.411743,338.583252 
	C429.003693,333.657013 429.283936,328.147858 432.136444,324.893188 
	C438.842072,317.242188 438.968811,307.344971 442.427826,298.686768 
	C444.406372,293.734467 445.099884,287.984039 447.473083,282.909576 
	C447.747528,282.322693 447.883850,281.642639 447.951385,280.992004 
	C448.652283,274.239532 449.359161,267.487274 449.986115,260.727722 
	C450.164490,258.804840 450.686279,256.619659 450.025391,254.964035 
	C447.196045,247.876282 451.057129,240.836594 449.418152,233.283554 
	C447.923401,226.395447 447.911713,218.663589 446.094116,211.531357 
	C445.522339,209.287628 442.696472,207.621704 440.916931,205.677917 
	C440.709473,205.451309 440.595886,205.138763 440.316589,204.653931 
	C441.094055,203.760483 441.911285,202.821365 442.320953,202.350601 
	C440.860901,198.768600 439.981567,195.468735 438.281921,192.666367 
	C434.036285,185.666245 429.418182,178.892059 425.272491,172.000153 
	C425.810211,171.950089 426.025024,171.927078 426.239868,171.904068 
	C434.114441,179.516251 439.612823,188.681839 444.202026,198.553513 
	C454.294250,220.262527 454.724457,243.035614 452.429626,266.244904 
	C448.841736,302.531982 433.279541,334.396820 416.109222,365.689392 
	C404.018799,387.723999 389.945923,408.461517 374.694366,428.410034 
	C373.514923,429.952698 371.825928,431.105804 369.958130,432.864014 
	C369.392975,433.609985 369.243469,433.931946 369.093994,434.253906 
	C368.924927,434.806732 368.755859,435.359558 368.339111,436.076630 
z"></path>
<path fill="#1B6D56" opacity="1.000000" stroke="none" d="
M198.644287,138.040085 
	C199.778610,139.442062 200.557220,140.884140 201.466339,142.567932 
	C200.786499,143.375626 199.881348,144.450989 198.941360,145.567734 
	C204.960815,149.017181 206.442261,148.826675 211.237946,143.666718 
	C210.400314,149.452026 213.890167,149.911163 217.814301,150.049881 
	C225.002594,150.303955 232.186249,150.689407 239.371902,151.018677 
	C239.537796,151.026260 239.744095,150.952118 239.865005,151.025604 
	C244.660568,153.939941 247.767395,152.251068 249.087845,147.212479 
	C251.045929,149.712021 252.331924,152.948715 254.309601,153.448502 
	C256.468842,153.994171 259.268494,152.005753 262.464844,150.884918 
	C262.522919,150.952560 263.200531,151.741806 264.509338,153.266220 
	C265.031555,151.008789 265.426880,149.299820 266.060120,146.562439 
	C267.551453,148.735031 268.703278,150.413025 270.113708,152.467728 
	C272.243011,151.194809 277.647247,154.149658 276.286194,146.211060 
	C282.728210,154.607513 288.946381,149.256439 295.168549,147.914230 
	C299.251434,147.033478 303.533112,146.966446 307.530945,145.842255 
	C309.668793,145.241089 311.261414,142.920670 313.337585,141.826920 
	C316.183533,140.327637 319.215424,139.147934 322.244629,138.042343 
	C324.092743,137.367844 326.085541,137.089828 328.496857,136.519363 
	C324.236938,131.663040 325.205414,127.315529 330.841583,124.182053 
	C330.432434,125.481300 330.256500,126.378380 329.870911,127.173851 
	C329.443542,128.055618 328.824646,128.844543 328.770111,128.929001 
	C330.256348,130.436813 331.550629,131.749908 333.002167,133.222534 
	C333.707062,132.555084 334.997681,131.333023 336.799316,130.323456 
	C337.662628,130.761398 338.014893,130.986832 338.367188,131.212250 
	C337.894257,131.924484 337.421326,132.636719 336.608643,133.767975 
	C335.430511,134.904404 334.592163,135.621780 333.395874,136.428436 
	C331.311462,137.506332 329.653839,138.649002 327.846710,139.457428 
	C319.114868,143.363647 310.652161,148.331345 301.519714,150.785400 
	C283.225494,155.701431 264.385345,156.761261 245.385590,156.305634 
	C229.497757,155.924637 213.829697,154.162552 198.954910,148.926163 
	C190.204498,145.845764 182.400894,140.075806 174.049377,135.252335 
	C173.715591,134.665558 173.503845,134.341965 173.406982,133.904404 
	C173.521851,133.790436 173.445709,133.479706 173.445709,133.479706 
	C173.445709,133.479706 173.129822,133.431335 173.129822,133.431335 
	C173.129822,133.431335 172.941544,133.301315 172.958328,132.843384 
	C172.990372,131.927200 173.005630,131.468933 173.020889,131.010666 
	C174.051422,131.390198 175.324646,131.508133 176.067657,132.197540 
	C178.440552,134.399185 180.535904,135.585907 183.691513,133.160095 
	C184.669510,132.408279 187.009796,133.428619 188.726395,133.637604 
	C188.705841,134.106689 188.685287,134.575790 188.664734,135.044876 
	C187.156601,135.877686 185.648468,136.710495 184.140335,137.543304 
	C188.137787,138.652542 192.857239,135.792236 194.340317,141.795975 
	C195.847153,140.377838 197.067856,139.229004 198.644287,138.040085 
z"></path>
<path fill="#E8373A" opacity="1.000000" stroke="none" d="
M381.996613,142.978256 
	C382.899689,143.306534 383.802795,143.634811 384.993652,144.535156 
	C387.188782,146.401169 389.096161,147.695129 390.889771,149.266571 
	C390.781372,150.220139 390.786713,150.896225 390.792084,151.572311 
	C391.199371,151.044312 391.606689,150.516296 392.384521,149.994904 
	C396.174286,151.992661 399.593567,153.983826 402.811188,156.237152 
	C401.679840,157.641739 400.750153,158.784149 399.383087,160.463943 
	C393.922211,160.093643 386.642731,164.096420 381.888977,157.879364 
	C383.453003,155.140533 384.709198,153.112564 385.663391,150.951248 
	C385.741638,150.774002 383.048462,148.951263 382.853241,149.140625 
	C380.965759,150.971619 379.337494,153.069824 377.401154,155.369614 
	C374.777191,152.888412 372.397736,153.643616 371.166351,158.410202 
	C370.684204,158.174835 370.202087,157.939453 369.719971,157.704086 
	C369.151947,152.801407 368.583893,147.898743 368.333496,142.852921 
	C369.767853,142.473999 370.884521,142.238220 371.964081,142.357269 
	C370.476166,146.215561 366.791687,150.082413 373.322144,152.175354 
	C377.603943,150.067276 378.177551,147.513046 374.336792,144.419815 
	C374.037903,144.179138 374.099792,143.490570 374.377502,143.014618 
	C376.745728,143.609543 378.713531,144.282181 380.734192,144.698471 
	C381.024536,144.758301 381.569489,143.582321 381.996613,142.978256 
z"></path>
<path fill="#E8373A" opacity="1.000000" stroke="none" d="
M333.753784,136.339157 
	C334.592163,135.621780 335.430511,134.904404 336.524719,134.079437 
	C346.451263,135.393921 356.121918,136.815979 365.615082,138.581024 
	C363.980408,139.007538 362.523254,139.091049 361.066101,139.174561 
	C361.131134,139.554169 361.196198,139.933762 361.261261,140.313354 
	C362.948151,139.822647 364.635040,139.331940 366.321960,138.841248 
	C366.321960,138.841248 366.733887,138.846436 366.869080,139.381668 
	C367.009705,140.932999 367.015076,141.949081 366.683044,143.023346 
	C364.555756,144.680481 362.765839,146.279434 360.975952,147.878387 
	C360.738953,147.619781 360.501923,147.361176 360.264923,147.102554 
	C361.098633,145.642532 361.932312,144.182510 362.766022,142.722488 
	C362.433289,142.304581 362.100555,141.886673 361.767822,141.468765 
	C355.650238,144.086960 350.195923,147.790878 345.211823,152.873489 
	C344.126740,152.471924 342.758148,151.965454 339.964630,150.931671 
	C343.308594,147.380219 346.091278,144.424866 348.865784,141.478180 
	C347.224731,138.486435 345.809998,137.739288 342.470062,139.367523 
	C339.836060,140.651596 336.192230,139.864273 333.147949,139.647400 
	C333.450562,138.311600 333.602173,137.325378 333.753784,136.339157 
z"></path>
<path fill="#21614A" opacity="1.000000" stroke="none" d="
M338.679932,131.111176 
	C338.014893,130.986832 337.662628,130.761398 337.135132,130.272995 
	C349.594299,118.849251 358.911743,105.720001 363.310181,89.082710 
	C365.941467,79.129707 367.179504,69.246841 365.070740,59.298420 
	C363.366760,51.259624 360.965454,49.999641 352.901672,49.998390 
	C351.905487,49.998234 350.909271,49.999477 349.610291,49.754074 
	C349.870300,49.008007 350.433136,48.507938 350.996002,48.007874 
	C362.422150,45.575275 367.752899,53.620613 368.263702,63.443050 
	C369.690002,90.868744 359.508240,113.148842 338.679932,131.111176 
z"></path>
<path fill="#EA3133" opacity="1.000000" stroke="none" d="
M391.003510,148.989090 
	C389.096161,147.695129 387.188782,146.401169 385.200500,144.753693 
	C393.570496,148.731598 402.374695,152.507401 410.354095,157.580460 
	C416.131378,161.253479 420.814606,166.647324 426.112793,171.588913 
	C426.025024,171.927078 425.810211,171.950089 424.893188,171.992401 
	C422.723999,171.427200 421.025665,171.138794 419.831177,170.205521 
	C415.316589,166.678299 410.952332,162.957489 406.561798,159.273468 
	C405.326172,158.236664 404.192993,157.077850 403.012817,155.974991 
	C399.593567,153.983826 396.174286,151.992661 392.271393,149.777985 
	C391.585175,149.284393 391.323761,149.095932 391.003510,148.989090 
z"></path>
<path fill="#26664F" opacity="1.000000" stroke="none" d="
M307.605103,73.889046 
	C306.744965,75.839890 305.838623,78.140434 304.336487,79.945045 
	C300.490601,84.565445 296.379700,88.965225 292.181702,93.723145 
	C291.557953,93.996399 291.127258,93.999733 290.373535,94.009773 
	C295.796173,87.348602 301.541840,80.680725 307.605103,73.889046 
z"></path>
<path fill="#26664F" opacity="1.000000" stroke="none" d="
M341.619781,50.883736 
	C341.886719,51.357624 341.911774,52.110058 341.619354,52.265545 
	C335.499359,55.519695 329.343506,58.706329 322.778809,61.862419 
	C328.651947,58.173824 334.940979,54.529057 341.619781,50.883736 
z"></path>
<path fill="#EA3133" opacity="1.000000" stroke="none" d="
M367.020447,142.965179 
	C367.015076,141.949081 367.009705,140.932999 367.005371,139.536102 
	C371.754150,140.368881 376.501801,141.582443 381.623047,142.887146 
	C381.569489,143.582321 381.024536,144.758301 380.734192,144.698471 
	C378.713531,144.282181 376.745728,143.609543 374.119873,142.905243 
	C372.986237,142.528412 372.493744,142.265427 372.001221,142.002441 
	C370.884521,142.238220 369.767853,142.473999 368.084503,142.846802 
	C367.517853,142.983810 367.020447,142.965179 367.020447,142.965179 
z"></path>
<path fill="#24634B" opacity="1.000000" stroke="none" d="
M320.557281,62.943314 
	C317.363708,66.031914 313.849457,69.240929 310.146301,72.198334 
	C313.383759,68.985733 316.810181,66.024727 320.557281,62.943314 
z"></path>
<path fill="#26664F" opacity="1.000000" stroke="none" d="
M350.772919,47.895737 
	C350.433136,48.507938 349.870300,49.008007 349.159180,49.753666 
	C348.542389,50.314926 348.073883,50.630596 347.251892,50.535873 
	C346.848572,49.841900 346.798737,49.558315 346.748871,49.274731 
	C348.015869,48.777691 349.282837,48.280647 350.772919,47.895737 
z"></path>
<path fill="#21614A" opacity="1.000000" stroke="none" d="
M346.390167,49.284214 
	C346.798737,49.558315 346.848572,49.841900 346.955383,50.553391 
	C346.256378,50.988682 345.500366,50.996071 344.369507,50.742161 
	C343.995605,50.309311 343.996521,50.137760 343.997467,49.966209 
	C344.675476,49.742039 345.353455,49.517872 346.390167,49.284214 
z"></path>
<path fill="#24634B" opacity="1.000000" stroke="none" d="
M321.741730,61.955658 
	C321.803131,62.207645 321.572845,62.482231 321.079437,62.833603 
	C321.027557,62.599678 321.238800,62.288963 321.741730,61.955658 
z"></path>
<path fill="#26664F" opacity="1.000000" stroke="none" d="
M343.663208,49.957203 
	C343.996521,50.137760 343.995605,50.309311 343.991699,50.738113 
	C343.711029,50.967010 343.433380,50.938663 342.741486,50.839867 
	C342.661133,50.495670 342.995026,50.221931 343.663208,49.957203 
z"></path>
<path fill="#EA3132" opacity="1.000000" stroke="none" d="
M369.359253,434.129211 
	C369.243469,433.931946 369.392975,433.609985 369.772400,433.143829 
	C369.876373,433.334595 369.750458,433.669525 369.359253,434.129211 
z"></path>
<path fill="#EA3236" opacity="1.000000" stroke="none" d="
M73.223351,314.943359 
	C71.066963,308.947388 68.436455,303.072723 66.863747,296.927368 
	C64.418449,287.372345 62.682594,277.635284 60.672497,267.969879 
	C60.369499,266.512939 60.142796,265.032867 59.995766,263.552094 
	C59.490177,258.460083 58.498726,253.342896 58.688774,248.272644 
	C58.966629,240.859863 59.827358,233.436234 60.963043,226.098221 
	C61.941055,219.778976 63.651150,213.573029 65.665421,207.289276 
	C66.526329,208.836945 66.759399,210.412308 66.731552,212.196472 
	C66.309677,213.270065 66.148735,214.134888 65.745255,215.170288 
	C65.345604,215.898972 65.188499,216.457077 65.022820,217.427277 
	C64.725136,222.896591 64.208450,227.953552 64.203232,233.011032 
	C64.196373,239.669022 60.373703,246.628662 65.091705,251.803726 
	C61.067719,264.322144 66.059906,275.172241 67.417145,286.364868 
	C68.861382,286.847626 70.300842,287.328796 72.326355,288.005829 
	C70.569473,289.325348 69.368713,290.227173 68.956215,290.536987 
	C69.686630,293.837219 69.911560,296.468292 70.857109,298.808167 
	C73.231682,304.684387 76.001022,310.400757 78.401253,316.267456 
	C78.658012,316.895020 77.523804,318.091675 76.994583,318.688538 
	C75.710670,317.216278 74.467010,316.079834 73.223351,314.943359 
z"></path>
<path fill="#EA3133" opacity="1.000000" stroke="none" d="
M128.981400,410.001221 
	C128.427811,410.031860 127.874214,410.062469 126.908051,410.148560 
	C118.794632,398.614380 110.505577,387.365509 103.543159,375.348022 
	C95.008453,360.616760 87.583679,345.242462 80.003624,329.665894 
	C80.884361,329.123749 81.440521,329.061859 82.039078,329.360870 
	C84.894493,332.945496 83.714951,339.530975 90.197533,339.326355 
	C90.573586,342.129761 90.103264,345.366150 91.500969,347.071381 
	C92.795609,348.650787 96.088020,348.592682 98.451935,349.242249 
	C95.647095,353.651855 95.705292,353.623047 98.459160,359.185974 
	C101.227242,364.777588 103.845261,370.443268 106.575592,376.053864 
	C107.001785,376.929657 107.609138,377.742035 108.247131,378.485565 
	C110.553864,381.173920 113.724052,383.461243 115.087189,386.553009 
	C118.574966,394.463623 122.851807,401.725342 128.733322,408.059845 
	C129.094284,408.448578 128.911316,409.342407 128.981400,410.001221 
z"></path>
<path fill="#24634B" opacity="1.000000" stroke="none" d="
M172.871475,130.711288 
	C173.005630,131.468933 172.990372,131.927200 172.957458,132.728973 
	C162.823288,123.566193 152.443451,114.214836 145.561523,101.953392 
	C140.203888,92.407799 140.401718,89.205849 149.472275,85.011780 
	C152.654663,83.540298 156.480469,83.037880 160.045944,82.887665 
	C179.412170,82.071709 196.620789,88.326401 212.239685,99.440559 
	C215.338211,101.645409 218.355957,103.963760 221.699768,106.454315 
	C220.679398,106.634972 218.930237,107.126434 218.127289,106.466545 
	C206.841476,97.191475 194.336990,89.929863 180.118134,86.806862 
	C170.265320,84.642799 159.859329,82.594025 149.902191,87.093292 
	C144.337463,89.607788 143.420349,92.680656 146.206055,98.376534 
	C150.333206,106.815262 155.995041,114.107086 162.914398,120.478073 
	C166.333679,123.626366 169.462067,127.090614 172.871475,130.711288 
z"></path>
<path fill="#EA3236" opacity="1.000000" stroke="none" d="
M71.246925,194.701004 
	C75.257690,188.333099 78.685326,181.490555 83.401367,175.696732 
	C93.031334,163.865997 105.045502,154.715454 118.708641,147.903641 
	C123.056114,145.736221 127.783073,144.329941 132.669785,142.757339 
	C133.006363,143.300385 133.009552,143.661453 132.953857,144.361908 
	C131.118927,146.085373 128.684540,149.010803 127.682434,148.582794 
	C123.663368,146.866241 121.365417,149.681503 118.930542,151.287811 
	C115.432709,153.595322 112.483208,156.734024 108.807014,159.948685 
	C105.410072,158.480469 104.145668,158.886215 100.842186,163.231232 
	C99.746712,164.672104 98.614082,166.288696 97.115791,167.186020 
	C87.884079,172.714752 82.731102,182.026535 75.873596,189.749329 
	C75.568611,190.092789 75.517334,190.648941 75.281662,191.068863 
	C74.539856,192.390610 73.766434,193.694626 72.564072,194.938538 
	C71.830910,194.814713 71.538918,194.757858 71.246925,194.701004 
z"></path>
<path fill="#E73135" opacity="1.000000" stroke="none" d="
M133.012726,144.022522 
	C133.009552,143.661453 133.006363,143.300385 133.000916,142.668503 
	C143.331299,140.064468 153.651718,137.674515 164.004898,135.436172 
	C166.738052,134.845261 169.572357,134.722214 172.787537,134.198074 
	C173.214859,134.011826 173.292114,134.018372 173.292114,134.018372 
	C173.503845,134.341965 173.715591,134.665558 174.001572,135.670059 
	C174.045975,136.908066 174.016129,137.465164 173.599014,138.011292 
	C166.238998,135.406357 162.739319,140.208511 159.035950,145.698120 
	C153.340393,136.514252 146.828751,142.423981 140.394409,143.642853 
	C140.394409,144.920502 140.394409,146.230652 140.394409,147.129456 
	C137.774536,146.026764 135.393631,145.024643 133.012726,144.022522 
z"></path>
<path fill="#0C5940" opacity="1.000000" stroke="none" d="
M212.045563,15.404918 
	C212.421310,16.976818 212.976685,18.961460 212.916428,20.927235 
	C212.552277,32.807884 212.059723,44.684757 211.544754,56.560062 
	C211.523849,57.041805 210.847183,57.495117 210.105377,58.040886 
	C209.555267,49.461811 209.009109,40.789932 209.329330,32.150169 
	C209.532135,26.678349 211.025909,21.254375 212.045563,15.404918 
z"></path>
<path fill="#26664F" opacity="1.000000" stroke="none" d="
M211.944122,70.426178 
	C212.666367,70.619209 213.654861,71.133911 213.899826,71.889648 
	C216.619598,80.279770 219.233704,88.704300 221.830917,97.133537 
	C221.955795,97.538857 221.657639,98.074524 221.297180,98.773445 
	C215.659607,90.374725 213.039032,80.853058 211.944122,70.426178 
z"></path>
<path fill="#E8373A" opacity="1.000000" stroke="none" d="
M70.986923,194.888336 
	C71.538918,194.757858 71.830910,194.814713 72.601746,195.305328 
	C74.324638,202.381775 69.791504,206.859848 66.992470,211.987671 
	C66.759399,210.412308 66.526329,208.836945 65.959167,207.037079 
	C67.325684,202.900284 69.026299,198.987976 70.986923,194.888336 
z"></path>
<path fill="#EA3236" opacity="1.000000" stroke="none" d="
M81.996681,329.000000 
	C81.440521,329.061859 80.884361,329.123749 79.923660,329.304993 
	C79.519112,329.424377 79.551323,329.386322 79.685921,328.953003 
	C79.263405,327.779419 78.706284,327.039154 78.149170,326.298889 
	C77.684288,325.530396 77.219398,324.761871 76.920471,323.411926 
	C77.403236,322.545502 77.720024,322.260498 78.415756,321.996521 
	C82.898758,322.952484 81.728645,326.306000 81.996681,329.000000 
z"></path>
<path fill="#EA3133" opacity="1.000000" stroke="none" d="
M78.036819,321.975464 
	C77.720024,322.260498 77.403236,322.545502 76.958534,323.128571 
	C75.631668,320.839264 74.432716,318.251862 73.228554,315.303925 
	C74.467010,316.079834 75.710670,317.216278 77.113190,318.979614 
	C77.526978,320.396118 77.781891,321.185791 78.036819,321.975464 
z"></path>
<path fill="#24634B" opacity="1.000000" stroke="none" d="
M221.534363,100.310181 
	C222.418396,101.243889 223.324478,102.510185 223.970032,103.882561 
	C222.991806,102.873344 222.274094,101.758049 221.534363,100.310181 
z"></path>
<path fill="#EA3133" opacity="1.000000" stroke="none" d="
M78.179230,326.647705 
	C78.706284,327.039154 79.263405,327.779419 79.684814,328.928284 
	C79.102501,328.556763 78.655891,327.776672 78.179230,326.647705 
z"></path>
<path fill="#E3373B" opacity="1.000000" stroke="none" d="
M173.406982,133.904404 
	C173.292114,134.018372 173.214859,134.011826 173.181152,133.992310 
	C173.147430,133.972809 173.017914,133.705811 173.073868,133.568573 
	C173.129822,133.431335 173.445709,133.479706 173.445709,133.479706 
	C173.445709,133.479706 173.521851,133.790436 173.406982,133.904404 
z"></path>
<path fill="#E83D3F" opacity="1.000000" stroke="none" d="
M78.415749,321.996521 
	C77.781891,321.185791 77.526978,320.396118 77.153450,319.315399 
	C77.523804,318.091675 78.658012,316.895020 78.401253,316.267456 
	C76.001022,310.400757 73.231682,304.684387 70.857109,298.808167 
	C69.911560,296.468292 69.686630,293.837219 68.956215,290.536987 
	C69.368713,290.227173 70.569473,289.325348 72.326355,288.005829 
	C70.300842,287.328796 68.861382,286.847626 67.417145,286.364868 
	C66.059906,275.172241 61.067719,264.322144 65.091705,251.803726 
	C60.373703,246.628662 64.196373,239.669022 64.203232,233.011032 
	C64.208450,227.953552 64.725136,222.896591 65.311554,217.389481 
	C65.735176,216.292938 65.861488,215.646317 65.987793,214.999695 
	C66.148735,214.134888 66.309677,213.270065 66.731552,212.196472 
	C69.791504,206.859848 74.324638,202.381775 73.042908,195.372284 
	C73.766434,193.694626 74.539856,192.390610 75.281662,191.068863 
	C75.517334,190.648941 75.568611,190.092789 75.873596,189.749329 
	C82.731102,182.026535 87.884079,172.714752 97.115791,167.186020 
	C98.614082,166.288696 99.746712,164.672104 100.842186,163.231232 
	C104.145668,158.886215 105.410072,158.480469 108.807014,159.948685 
	C112.483208,156.734024 115.432709,153.595322 118.930542,151.287811 
	C121.365417,149.681503 123.663368,146.866241 127.682434,148.582794 
	C128.684540,149.010803 131.118927,146.085373 132.953857,144.361893 
	C135.393631,145.024643 137.774536,146.026764 140.394409,147.129456 
	C140.394409,146.230652 140.394409,144.920502 140.394409,143.642853 
	C146.828751,142.423981 153.340393,136.514252 159.035950,145.698120 
	C162.739319,140.208511 166.238998,135.406357 173.659790,138.353119 
	C177.103394,140.694717 179.940170,142.996674 183.125336,144.611450 
	C191.465179,148.839523 199.709137,153.469620 208.476288,156.566589 
	C214.255112,158.607956 220.888275,158.170898 227.110580,159.045044 
	C229.759186,159.417145 232.335464,160.304001 234.944626,160.956924 
	C234.891418,161.236145 234.838211,161.515381 234.784988,161.794601 
	C236.764160,161.114517 238.743317,160.434433 240.902878,159.692352 
	C241.197998,161.367920 241.402084,162.526642 241.734314,164.412918 
	C245.324036,162.519272 248.397217,160.898102 252.299805,158.839386 
	C251.300797,161.332520 250.709503,162.808167 250.118210,164.283798 
	C250.372192,164.730042 250.626160,165.176270 250.880142,165.622513 
	C256.847382,157.314575 265.330597,159.249252 273.238281,158.993744 
	C275.702271,158.914139 278.328461,159.979706 280.628632,159.442657 
	C287.112000,157.928864 293.480438,155.907578 299.863953,153.985916 
	C305.456329,152.302414 310.966980,150.336716 316.590179,148.770050 
	C321.006134,147.539764 324.360474,142.120300 329.631134,145.520752 
	C330.865570,143.494827 331.931244,141.745895 332.996918,139.996979 
	C336.192230,139.864273 339.836060,140.651596 342.470062,139.367523 
	C345.809998,137.739288 347.224731,138.486435 348.865784,141.478180 
	C346.091278,144.424866 343.308594,147.380219 339.964630,150.931671 
	C342.758148,151.965454 344.126740,152.471924 345.211823,152.873489 
	C350.195923,147.790878 355.650238,144.086960 361.767822,141.468765 
	C362.100555,141.886673 362.433289,142.304581 362.766022,142.722488 
	C361.932312,144.182510 361.098633,145.642532 360.264923,147.102554 
	C360.501923,147.361176 360.738953,147.619781 360.975952,147.878387 
	C362.765839,146.279434 364.555756,144.680481 366.683044,143.023346 
	C367.020447,142.965179 367.517853,142.983810 367.766846,142.989929 
	C368.583893,147.898743 369.151947,152.801407 369.719971,157.704086 
	C370.202087,157.939453 370.684204,158.174835 371.166351,158.410202 
	C372.397736,153.643616 374.777191,152.888412 377.401154,155.369614 
	C379.337494,153.069824 380.965759,150.971619 382.853241,149.140625 
	C383.048462,148.951263 385.741638,150.774002 385.663391,150.951248 
	C384.709198,153.112564 383.453003,155.140533 381.888977,157.879364 
	C386.642731,164.096420 393.922211,160.093643 399.383087,160.463943 
	C400.750153,158.784149 401.679840,157.641739 402.811188,156.237152 
	C404.192993,157.077850 405.326172,158.236664 406.561798,159.273468 
	C410.952332,162.957489 415.316589,166.678299 419.831177,170.205521 
	C421.025665,171.138794 422.723999,171.427200 424.570251,172.019440 
	C429.418182,178.892059 434.036285,185.666245 438.281921,192.666367 
	C439.981567,195.468735 440.860901,198.768600 442.320953,202.350601 
	C441.911285,202.821365 441.094055,203.760483 440.316589,204.653931 
	C440.595886,205.138763 440.709473,205.451309 440.916931,205.677917 
	C442.696472,207.621704 445.522339,209.287628 446.094116,211.531357 
	C447.911713,218.663589 447.923401,226.395447 449.418152,233.283554 
	C451.057129,240.836594 447.196045,247.876282 450.025391,254.964035 
	C450.686279,256.619659 450.164490,258.804840 449.986115,260.727722 
	C449.359161,267.487274 448.652283,274.239532 447.951385,280.992004 
	C447.883850,281.642639 447.747528,282.322693 447.473083,282.909576 
	C445.099884,287.984039 444.406372,293.734467 442.427826,298.686768 
	C438.968811,307.344971 438.842072,317.242188 432.136444,324.893188 
	C429.283936,328.147858 429.003693,333.657013 427.411743,338.583252 
	C426.519531,337.843140 425.711914,337.173157 424.847900,336.456421 
	C424.206848,340.260071 424.306671,344.257507 422.821411,347.537048 
	C419.606873,354.635193 415.834259,361.518646 411.806580,368.198486 
	C408.524445,373.641815 404.411865,378.577301 400.910156,383.897675 
	C398.431335,387.663910 396.515015,391.799622 394.048889,395.575287 
	C392.339233,398.192749 389.963837,400.368378 388.170624,402.939972 
	C385.987000,406.071533 384.242371,409.509308 382.057617,412.639984 
	C377.994934,418.461639 373.794922,424.189789 369.535950,429.869781 
	C368.886841,430.735443 367.615601,431.134552 366.319183,431.892944 
	C363.788727,430.989319 361.907593,430.625183 362.588135,434.138885 
	C363.390442,438.281250 361.583649,441.069397 358.359589,443.389893 
	C357.241760,444.194489 356.622406,445.658417 355.583832,446.612762 
	C352.771515,449.197113 349.841003,451.652435 346.991394,454.197021 
	C346.151703,454.946777 345.389526,455.792572 344.653046,456.647156 
	C340.196808,461.817902 335.981323,467.221741 331.221680,472.094727 
	C328.776123,474.598511 325.173431,475.930115 322.451721,478.217438 
	C319.467865,480.725067 317.348602,484.571259 314.050446,486.329803 
	C307.394073,489.878967 302.598145,496.662659 294.352905,497.517487 
	C292.633087,497.695801 291.150269,499.562042 289.416382,500.330139 
	C286.003357,501.842010 282.562225,503.370697 278.994629,504.425476 
	C276.572388,505.141632 273.851685,504.803986 271.380066,505.409485 
	C268.732178,506.058197 266.219757,507.259918 263.197174,508.388763 
	C262.451691,507.362061 261.416504,505.936401 259.931946,503.891876 
	C258.785797,505.834686 257.699829,507.675507 256.613831,509.516327 
	C256.274536,508.972992 255.935211,508.429626 255.595901,507.886292 
	C252.967529,507.886292 250.335754,507.962128 247.712601,507.844940 
	C246.801178,507.804230 245.867844,507.374146 245.023193,506.961029 
	C244.140823,506.529572 243.294739,505.363068 242.532959,505.445282 
	C231.718994,506.613037 223.797333,499.843628 215.269501,495.222443 
	C207.122818,490.807770 198.987213,485.951874 191.980301,479.963593 
	C183.631195,472.828247 176.453690,464.314331 168.834885,456.334412 
	C161.985062,449.159882 155.166611,441.953369 148.450333,434.654236 
	C145.199127,431.120789 142.213928,427.342560 139.387268,423.279266 
	C139.443329,421.932404 139.220444,420.981476 138.997559,420.030518 
	C136.426392,417.899445 133.855225,415.768372 131.362579,413.145874 
	C130.960159,412.114777 130.479202,411.575104 129.998245,411.035461 
	C129.673843,410.920868 129.410950,410.724060 129.095490,410.223145 
	C128.911316,409.342407 129.094284,408.448578 128.733322,408.059845 
	C122.851807,401.725342 118.574966,394.463623 115.087189,386.553009 
	C113.724052,383.461243 110.553864,381.173920 108.247131,378.485565 
	C107.609138,377.742035 107.001785,376.929657 106.575592,376.053864 
	C103.845261,370.443268 101.227242,364.777588 98.459160,359.185974 
	C95.705292,353.623047 95.647095,353.651855 98.451935,349.242249 
	C96.088020,348.592682 92.795609,348.650787 91.500969,347.071381 
	C90.103264,345.366150 90.573586,342.129761 90.197533,339.326355 
	C83.714951,339.530975 84.894493,332.945496 82.039078,329.360901 
	C81.728645,326.306000 82.898758,322.952484 78.415749,321.996521 
M339.057678,332.827271 
	C344.148315,327.760925 335.307037,324.396240 337.459076,320.026947 
	C335.686035,318.869904 334.015717,317.899628 332.478943,316.750702 
	C329.776184,314.730042 327.130493,312.630585 324.505035,310.509521 
	C319.240723,306.256592 319.485016,312.791901 317.136902,314.244232 
	C316.996033,314.331329 316.877869,314.462921 316.729187,314.528625 
	C309.142975,317.881042 307.175446,324.374420 307.004700,331.883881 
	C306.974487,333.212036 307.153564,334.629150 306.758453,335.850708 
	C304.680603,342.274536 306.352539,349.175781 311.147766,353.491486 
	C314.075439,356.126312 316.951477,358.818512 318.607361,360.341461 
	C322.674072,360.594604 325.393677,360.763885 328.944550,360.984894 
	C330.692596,358.566895 333.227142,355.483063 335.279175,352.106079 
	C337.408295,348.602173 339.187347,344.866180 340.846619,341.111084 
	C341.217834,340.270966 340.486481,338.920074 340.202484,337.819885 
	C339.839020,336.412140 339.414520,335.020203 339.057678,332.827271 
M372.165619,216.148483 
	C370.765381,211.283691 365.820709,211.863419 362.480133,210.090103 
	C360.832336,209.215393 357.845276,208.900467 356.456787,209.824219 
	C348.404144,215.181778 343.158325,222.550934 343.118805,232.592224 
	C343.105042,236.092010 344.004700,239.656754 344.909180,243.080353 
	C345.702179,246.081955 346.330078,249.714935 348.370453,251.673553 
	C352.292114,255.438065 356.730042,259.041840 363.187439,257.105560 
	C366.155914,256.215454 376.029907,248.349854 375.840546,245.427826 
	C375.608490,241.847488 376.298615,238.159515 376.586121,234.854156 
	C377.180573,228.021088 375.245819,222.529465 372.165619,216.148483 
M167.782745,237.254181 
	C168.467255,235.444458 169.151779,233.634720 169.565567,232.540741 
	C169.174576,230.279633 168.874405,228.526505 168.567703,226.774506 
	C168.209305,224.727097 168.489792,222.167267 167.351944,220.738602 
	C164.832581,217.575333 161.581848,214.998566 158.661148,212.150055 
	C153.416779,207.035309 144.684311,208.470993 141.475082,215.131302 
	C139.897049,218.406296 138.598129,221.829483 137.367798,225.255585 
	C134.414368,233.480026 134.178146,241.688263 139.707306,248.872864 
	C142.419876,252.397598 146.303497,257.295135 149.810165,257.424561 
	C155.699905,257.641846 161.711853,254.547104 169.100281,252.438309 
	C166.478226,251.234680 165.399811,250.739655 164.379501,250.271286 
	C165.461624,246.009979 166.475952,242.015579 167.782745,237.254181 
M266.456665,234.088562 
	C259.140106,226.371979 250.407425,227.288712 244.509933,236.016479 
	C240.207321,242.383957 239.769760,249.346710 240.079208,256.592377 
	C240.157593,258.428162 240.090942,260.270142 240.090942,262.246979 
	C242.104980,265.283691 243.909973,269.135956 246.742157,271.956940 
	C249.564896,274.768585 253.417862,276.545929 257.094055,278.957062 
	C261.233887,271.664825 264.691589,277.682465 269.134674,279.839294 
	C263.171722,274.844574 266.555054,270.957947 268.845123,266.496521 
	C270.930878,262.433105 272.517029,257.827118 273.036285,253.312286 
	C273.831146,246.401505 270.540985,240.379837 266.456665,234.088562 
M204.004272,334.329987 
	C203.063187,330.024689 202.811340,325.403809 201.018448,321.488556 
	C198.371613,315.708588 192.983978,311.885040 186.755432,312.355988 
	C179.816986,312.880554 174.667221,318.157471 173.415710,324.687714 
	C172.056732,331.778534 170.067245,339.327057 173.671112,346.647583 
	C174.824966,348.991394 175.153992,351.741272 175.671204,353.618622 
	C178.981476,356.385376 181.959549,358.874481 184.859238,361.298035 
	C186.498642,361.006012 189.044708,359.748138 190.083069,360.519623 
	C193.093842,362.756409 194.624634,360.587494 195.707443,358.918274 
	C199.782227,352.636780 203.513443,346.132385 206.741806,340.762054 
	C205.621368,338.486816 204.812881,336.845093 204.004272,334.329987 
M252.220169,432.900238 
	C264.160065,433.302979 271.118774,427.086121 271.995697,415.220154 
	C272.105621,413.733368 272.159851,412.242493 272.241211,410.753540 
	C272.727112,401.859589 272.188660,393.526733 263.513214,387.948639 
	C257.241150,383.915833 245.348648,387.181152 243.139008,393.943604 
	C242.376877,396.276031 241.239319,398.485809 240.697464,399.756683 
	C240.441086,404.490570 240.227051,408.442474 240.013016,412.394379 
	C239.658295,413.279785 240.912354,414.466217 240.897064,415.636047 
	C240.792679,423.623718 244.281265,429.230469 252.220169,432.900238 
z"></path>
<path fill="#EA3133" opacity="1.000000" stroke="none" d="
M138.997910,420.398010 
	C139.220444,420.981476 139.443329,421.932404 139.332489,422.927063 
	C138.998596,422.235657 138.998428,421.500610 138.997910,420.398010 
z"></path>
<path fill="#EA3133" opacity="1.000000" stroke="none" d="
M130.020096,411.327515 
	C130.479202,411.575104 130.960159,412.114777 131.215424,412.825256 
	C130.673798,412.537262 130.357880,412.078400 130.020096,411.327515 
z"></path>
<path fill="#1B6D56" opacity="1.000000" stroke="none" d="
M199.369553,137.992294 
	C197.500031,134.547943 196.000061,131.095886 194.500092,127.643837 
	C194.948273,127.357231 195.396454,127.070633 195.844620,126.784027 
	C197.849167,130.004654 199.869568,133.216125 201.763580,136.500488 
	C201.809265,136.579681 200.445496,137.471695 199.369553,137.992294 
z"></path>
<path fill="#E3373B" opacity="1.000000" stroke="none" d="
M333.147949,139.647400 
	C331.931244,141.745895 330.865570,143.494827 329.631134,145.520752 
	C324.360474,142.120300 321.006134,147.539764 316.590179,148.770050 
	C310.966980,150.336716 305.456329,152.302414 299.863953,153.985916 
	C293.480438,155.907578 287.112000,157.928864 280.628632,159.442657 
	C278.328461,159.979706 275.702271,158.914139 273.238281,158.993744 
	C265.330597,159.249252 256.847382,157.314575 250.880142,165.622513 
	C250.626160,165.176270 250.372192,164.730042 250.118210,164.283798 
	C250.709503,162.808167 251.300797,161.332520 252.299805,158.839386 
	C248.397217,160.898102 245.324036,162.519272 241.734314,164.412918 
	C241.402084,162.526642 241.197998,161.367920 240.902878,159.692352 
	C238.743317,160.434433 236.764160,161.114517 234.784988,161.794601 
	C234.838211,161.515381 234.891418,161.236145 234.944626,160.956924 
	C232.335464,160.304001 229.759186,159.417145 227.110580,159.045044 
	C220.888275,158.170898 214.255112,158.607956 208.476288,156.566589 
	C199.709137,153.469620 191.465179,148.839523 183.125336,144.611450 
	C179.940170,142.996674 177.103394,140.694717 174.047058,138.364105 
	C174.016129,137.465164 174.045975,136.908066 174.123627,135.933243 
	C182.400894,140.075806 190.204498,145.845764 198.954910,148.926163 
	C213.829697,154.162552 229.497757,155.924637 245.385590,156.305634 
	C264.385345,156.761261 283.225494,155.701431 301.519714,150.785400 
	C310.652161,148.331345 319.114868,143.363647 327.846710,139.457428 
	C329.653839,138.649002 331.311462,137.506332 333.395874,136.428436 
	C333.602173,137.325378 333.450562,138.311600 333.147949,139.647400 
M244.611115,159.793976 
	C244.215302,159.789795 243.819489,159.785629 243.423676,159.781448 
	C243.422272,159.945663 243.409851,160.252609 243.421051,160.253479 
	C243.814667,160.283875 244.210495,160.285492 244.611115,159.793976 
z"></path>
<path fill="#E83D3F" opacity="1.000000" stroke="none" d="
M371.964081,142.357269 
	C372.493744,142.265427 372.986237,142.528412 373.736389,142.900787 
	C374.099792,143.490570 374.037903,144.179138 374.336792,144.419815 
	C378.177551,147.513046 377.603943,150.067276 373.322144,152.175354 
	C366.791687,150.082413 370.476166,146.215561 371.964081,142.357269 
z"></path>
<path fill="#E83D3F" opacity="1.000000" stroke="none" d="
M390.889771,149.266571 
	C391.323761,149.095932 391.585175,149.284393 391.900879,149.771393 
	C391.606689,150.516296 391.199371,151.044312 390.792084,151.572311 
	C390.786713,150.896225 390.781372,150.220139 390.889771,149.266571 
z"></path>
<path fill="#EA3133" opacity="1.000000" stroke="none" d="
M366.293182,138.889343 
	C364.635040,139.331940 362.948151,139.822647 361.261261,140.313354 
	C361.196198,139.933762 361.131134,139.554169 361.066101,139.174561 
	C362.523254,139.091049 363.980408,139.007538 365.857208,138.876984 
	C366.276855,138.829956 366.264404,138.937454 366.293182,138.889343 
z"></path>
<path fill="#E8373A" opacity="1.000000" stroke="none" d="
M65.745255,215.170288 
	C65.861488,215.646317 65.735176,216.292938 65.320129,216.977356 
	C65.188499,216.457077 65.345604,215.898972 65.745255,215.170288 
z"></path>
<path fill="#EA3032" opacity="1.000000" stroke="none" d="
M339.036987,333.224365 
	C339.414520,335.020203 339.839020,336.412140 340.202484,337.819885 
	C340.486481,338.920074 341.217834,340.270966 340.846619,341.111084 
	C339.187347,344.866180 337.408295,348.602173 335.279175,352.106079 
	C333.227142,355.483063 330.692596,358.566895 328.944550,360.984894 
	C325.393677,360.763885 322.674072,360.594604 318.607361,360.341461 
	C316.951477,358.818512 314.075439,356.126312 311.147766,353.491486 
	C306.352539,349.175781 304.680603,342.274536 306.758453,335.850708 
	C307.153564,334.629150 306.974487,333.212036 307.004700,331.883881 
	C307.175446,324.374420 309.142975,317.881042 316.729187,314.528625 
	C316.877869,314.462921 316.996033,314.331329 317.136902,314.244232 
	C319.485016,312.791901 319.240723,306.256592 324.505035,310.509521 
	C327.130493,312.630585 329.776184,314.730042 332.478943,316.750702 
	C334.015717,317.899628 335.686035,318.869904 337.459076,320.026947 
	C335.307037,324.396240 344.148315,327.760925 339.036987,333.224365 
M336.016357,342.312622 
	C338.195648,334.110138 336.599030,326.486664 331.891327,319.644379 
	C328.096619,314.129150 320.142029,313.648651 315.863770,318.225067 
	C307.206329,327.485809 308.214844,346.265289 315.883972,354.521545 
	C320.133575,359.096466 326.273926,359.364532 330.063293,354.441101 
	C332.593506,351.153625 333.872711,346.903320 336.016357,342.312622 
z"></path>
<path fill="#EA2F30" opacity="1.000000" stroke="none" d="
M372.311035,216.508392 
	C375.245819,222.529465 377.180573,228.021088 376.586121,234.854156 
	C376.298615,238.159515 375.608490,241.847488 375.840546,245.427826 
	C376.029907,248.349854 366.155914,256.215454 363.187439,257.105560 
	C356.730042,259.041840 352.292114,255.438065 348.370453,251.673553 
	C346.330078,249.714935 345.702179,246.081955 344.909180,243.080353 
	C344.004700,239.656754 343.105042,236.092010 343.118805,232.592224 
	C343.158325,222.550934 348.404144,215.181778 356.456787,209.824219 
	C357.845276,208.900467 360.832336,209.215393 362.480133,210.090103 
	C365.820709,211.863419 370.765381,211.283691 372.311035,216.508392 
M361.313751,213.690674 
	C357.457001,213.570465 353.879242,213.480331 351.330750,217.523834 
	C345.289856,227.108536 345.670197,242.492889 352.558716,251.358795 
	C356.288940,256.159790 364.139038,256.242157 367.986633,251.554352 
	C374.067932,244.145111 375.047913,235.414474 373.145996,226.628845 
	C371.900879,220.877243 370.147491,214.320007 361.313751,213.690674 
z"></path>
<path fill="#E92E30" opacity="1.000000" stroke="none" d="
M167.636505,237.637695 
	C166.475952,242.015579 165.461624,246.009979 164.379501,250.271286 
	C165.399811,250.739655 166.478226,251.234680 169.100281,252.438309 
	C161.711853,254.547104 155.699905,257.641846 149.810165,257.424561 
	C146.303497,257.295135 142.419876,252.397598 139.707306,248.872864 
	C134.178146,241.688263 134.414368,233.480026 137.367798,225.255585 
	C138.598129,221.829483 139.897049,218.406296 141.475082,215.131302 
	C144.684311,208.470993 153.416779,207.035309 158.661148,212.150055 
	C161.581848,214.998566 164.832581,217.575333 167.351944,220.738602 
	C168.489792,222.167267 168.209305,224.727097 168.567703,226.774506 
	C168.874405,228.526505 169.174576,230.279633 169.565567,232.540741 
	C169.151779,233.634720 168.467255,235.444458 167.636505,237.637695 
M162.006561,219.625458 
	C158.037064,213.251404 149.282318,211.119507 144.811188,215.438156 
	C136.324051,223.635834 137.183029,246.071472 146.264130,253.387161 
	C149.600800,256.075165 156.815948,255.362808 159.243561,251.826233 
	C166.034988,241.932343 167.377518,231.414017 162.006561,219.625458 
z"></path>
<path fill="#E92B2C" opacity="1.000000" stroke="none" d="
M266.653870,234.398560 
	C270.540985,240.379837 273.831146,246.401505 273.036285,253.312286 
	C272.517029,257.827118 270.930878,262.433105 268.845123,266.496521 
	C266.555054,270.957947 263.171722,274.844574 269.134674,279.839294 
	C264.691589,277.682465 261.233887,271.664825 257.094055,278.957062 
	C253.417862,276.545929 249.564896,274.768585 246.742157,271.956940 
	C243.909973,269.135956 242.104980,265.283691 240.090942,262.246979 
	C240.090942,260.270142 240.157593,258.428162 240.079208,256.592377 
	C239.769760,249.346710 240.207321,242.383957 244.509933,236.016479 
	C250.407425,227.288712 259.140106,226.371979 266.653870,234.398560 
M248.992523,234.324295 
	C241.544098,241.857086 241.626770,257.853851 245.707672,266.213867 
	C247.966476,270.841156 251.838364,274.733215 256.475128,274.404938 
	C259.767029,274.171936 263.776031,270.404663 265.697754,267.166199 
	C270.526367,259.029022 270.601654,249.829987 267.453583,241.142487 
	C264.055634,231.765427 257.430786,229.454666 248.992523,234.324295 
z"></path>
<path fill="#EA2E30" opacity="1.000000" stroke="none" d="
M204.004333,334.766663 
	C204.812881,336.845093 205.621368,338.486816 206.741806,340.762054 
	C203.513443,346.132385 199.782227,352.636780 195.707443,358.918274 
	C194.624634,360.587494 193.093842,362.756409 190.083069,360.519623 
	C189.044708,359.748138 186.498642,361.006012 184.859238,361.298035 
	C181.959549,358.874481 178.981476,356.385376 175.671204,353.618622 
	C175.153992,351.741272 174.824966,348.991394 173.671112,346.647583 
	C170.067245,339.327057 172.056732,331.778534 173.415710,324.687714 
	C174.667221,318.157471 179.816986,312.880554 186.755432,312.355988 
	C192.983978,311.885040 198.371613,315.708588 201.018448,321.488556 
	C202.811340,325.403809 203.063187,330.024689 204.004333,334.766663 
M195.275940,318.108063 
	C189.850632,313.744232 183.888382,314.372437 179.707581,319.748413 
	C172.823746,328.600128 173.303177,345.732178 180.671295,354.186615 
	C184.952087,359.098541 191.733002,359.203461 195.726791,353.995209 
	C203.082047,344.403351 204.762161,329.119263 195.275940,318.108063 
z"></path>
<path fill="#EA2D2E" opacity="1.000000" stroke="none" d="
M251.836945,432.761230 
	C244.281265,429.230469 240.792679,423.623718 240.897064,415.636047 
	C240.912354,414.466217 239.658295,413.279785 240.013016,412.394379 
	C240.227051,408.442474 240.441086,404.490570 240.697464,399.756683 
	C241.239319,398.485809 242.376877,396.276031 243.139008,393.943604 
	C245.348648,387.181152 257.241150,383.915833 263.513214,387.948639 
	C272.188660,393.526733 272.727112,401.859589 272.241211,410.753540 
	C272.159851,412.242493 272.105621,413.733368 271.995697,415.220154 
	C271.118774,427.086121 264.160065,433.302979 251.836945,432.761230 
M246.353821,395.061798 
	C241.590164,404.589935 241.985916,414.158936 246.303101,423.672546 
	C248.172256,427.791473 251.029099,430.928436 255.984848,431.056152 
	C261.165955,431.189667 264.404755,427.968994 266.404510,423.839630 
	C270.271729,415.854034 271.451508,407.452545 268.360352,398.847412 
	C266.396576,393.380676 262.679108,388.872131 257.078217,388.033051 
	C252.964279,387.416748 248.907501,390.164978 246.353821,395.061798 
z"></path>
<path fill="#E83D3F" opacity="1.000000" stroke="none" d="
M244.608566,160.042572 
	C244.210495,160.285492 243.814667,160.283875 243.421051,160.253479 
	C243.409851,160.252609 243.422272,159.945663 243.423676,159.781448 
	C243.819489,159.785629 244.215302,159.789795 244.608566,160.042572 
z"></path>
<path fill="#FEFAFA" opacity="1.000000" stroke="none" d="
M335.864075,342.698242 
	C333.872711,346.903320 332.593506,351.153625 330.063293,354.441101 
	C326.273926,359.364532 320.133575,359.096466 315.883972,354.521545 
	C308.214844,346.265289 307.206329,327.485809 315.863770,318.225067 
	C320.142029,313.648651 328.096619,314.129150 331.891327,319.644379 
	C336.599030,326.486664 338.195648,334.110138 335.864075,342.698242 
z"></path>
<path fill="#FEF9F9" opacity="1.000000" stroke="none" d="
M361.749725,213.693466 
	C370.147491,214.320007 371.900879,220.877243 373.145996,226.628845 
	C375.047913,235.414474 374.067932,244.145111 367.986633,251.554352 
	C364.139038,256.242157 356.288940,256.159790 352.558716,251.358795 
	C345.670197,242.492889 345.289856,227.108536 351.330750,217.523834 
	C353.879242,213.480331 357.457001,213.570465 361.749725,213.693466 
z"></path>
<path fill="#FEF9F9" opacity="1.000000" stroke="none" d="
M162.179413,219.968460 
	C167.377518,231.414017 166.034988,241.932343 159.243561,251.826233 
	C156.815948,255.362808 149.600800,256.075165 146.264130,253.387161 
	C137.183029,246.071472 136.324051,223.635834 144.811188,215.438156 
	C149.282318,211.119507 158.037064,213.251404 162.179413,219.968460 
z"></path>
<path fill="#FEF9F9" opacity="1.000000" stroke="none" d="
M249.267944,234.051971 
	C257.430786,229.454666 264.055634,231.765427 267.453583,241.142487 
	C270.601654,249.829987 270.526367,259.029022 265.697754,267.166199 
	C263.776031,270.404663 259.767029,274.171936 256.475128,274.404938 
	C251.838364,274.733215 247.966476,270.841156 245.707672,266.213867 
	C241.626770,257.853851 241.544098,241.857086 249.267944,234.051971 
z"></path>
<path fill="#FEF9F9" opacity="1.000000" stroke="none" d="
M195.532410,318.377808 
	C204.762161,329.119263 203.082047,344.403351 195.726791,353.995209 
	C191.733002,359.203461 184.952087,359.098541 180.671295,354.186615 
	C173.303177,345.732178 172.823746,328.600128 179.707581,319.748413 
	C183.888382,314.372437 189.850632,313.744232 195.532410,318.377808 
z"></path>
<path fill="#FEFAFA" opacity="1.000000" stroke="none" d="
M246.578583,394.758362 
	C248.907501,390.164978 252.964279,387.416748 257.078217,388.033051 
	C262.679108,388.872131 266.396576,393.380676 268.360352,398.847412 
	C271.451508,407.452545 270.271729,415.854034 266.404510,423.839630 
	C264.404755,427.968994 261.165955,431.189667 255.984848,431.056152 
	C251.029099,430.928436 248.172256,427.791473 246.303101,423.672546 
	C241.985916,414.158936 241.590164,404.589935 246.578583,394.758362 
z"></path>
<path fill="#FEFAFA" opacity="1.000000" stroke="none" d="
M244.611115,159.793976 
	C244.215302,159.789795 243.819489,159.785629 243.423676,159.781448 
	C243.422272,159.945663 243.409851,160.252609 243.421051,160.253479 
	C243.814667,160.283875 244.210495,160.285492 244.611115,159.793976 
z"></path>
<path fill="#FEFAFA" opacity="1.000000" stroke="none" d="
M333.395874,136.428436 
	C333.450562,138.311600 333.602173,137.325378 333.147949,139.647400 
	C331.311462,137.506332 329.653839,138.649002 327.846710,139.457428 
	C319.114868,143.363647 310.652161,148.331345 303.395874,136.428436 
z"></path>
<path fill="#FEFAFA" opacity="1.000000" stroke="none" d="
M310.652161,148.331345 
	C319.114868,143.363647 327.846710,139.457428 329.653839,138.649002 
	C331.311462,137.506332 333.602173,137.325378 333.147949,139.647400 
	C333.450562,138.311600 333.395874,136.428436 310.652161,148.331345 
z"></path>
</svg>