<svg version="1.1" id="Layer_1" xmlns="http://www.w3.org/2000/svg" xmlns:xlink="http://www.w3.org/1999/xlink" x="0px" y="0px"
	 width="100%" viewBox="0 0 1144 520" enable-background="new 0 0 1144 520" xml:space="preserve">
<path fill="#FEFEFE" opacity="1.000000" stroke="none" 
	d="
M160.000000,1.000003 
	C488.286743,1.000000 816.573486,1.000000 1144.930176,1.000000 
	C1144.930176,174.262146 1144.930176,347.524323 1144.930176,520.893250 
	C763.666687,520.893250 382.333344,520.893250 1.000000,520.893250 
	C1.000000,425.222534 1.000000,329.569214 1.393802,233.650589 
	C1.926137,234.025696 2.102308,234.660583 2.197585,235.307358 
	C3.748521,245.835831 4.813797,256.465179 6.987453,266.862976 
	C8.631900,274.729248 11.688413,282.300354 14.020441,290.382690 
	C15.012697,293.516083 15.987277,296.321045 17.206553,299.015259 
	C33.284203,334.541626 53.197174,367.694794 77.474312,398.295898 
	C95.989471,421.634125 115.985573,443.335693 141.013275,459.803131 
	C164.240448,475.085846 188.890533,479.229706 215.027405,467.552094 
	C232.121765,459.914520 246.467804,448.314575 259.629822,435.309998 
	C282.396179,412.816010 302.925446,388.437408 318.990112,360.617462 
	C328.901154,343.453979 338.676636,326.190399 347.816345,308.609619 
	C356.462708,291.977966 362.322479,274.177124 365.191467,255.654312 
	C367.634583,239.881287 368.253235,223.984665 365.816193,207.984634 
	C363.594391,193.397781 358.344757,180.089249 349.793182,168.397827 
	C337.432465,151.498749 322.027771,138.197693 301.020721,132.924194 
	C291.283508,130.479813 281.537720,128.066254 271.768524,125.754135 
	C267.641907,124.777473 263.444855,124.098412 259.554688,123.014908 
	C279.622559,105.860901 289.832703,84.757545 288.341888,58.410606 
	C287.955719,51.585934 284.630585,45.015057 280.187744,44.972046 
	C274.524597,44.917217 268.356750,44.866436 263.266052,46.932243 
	C242.438370,55.384140 226.867676,70.410294 214.316284,88.727608 
	C211.419632,92.954964 209.018661,97.521980 206.389603,101.932693 
	C206.010468,95.330757 206.424515,89.165901 207.166473,83.040771 
	C209.053726,67.460724 208.311844,52.260056 201.224731,37.609371 
	C201.062119,37.242191 200.927536,37.133236 200.736893,36.690548 
	C199.377472,34.131096 198.074112,31.905384 196.697769,29.451447 
	C196.624802,29.223219 196.193542,29.014259 196.094635,28.676823 
	C194.484543,26.426687 192.973358,24.513990 191.372345,22.802259 
	C191.282516,23.003223 191.431107,22.588989 191.322876,22.332123 
	C190.793533,21.730961 190.372406,21.386669 189.920624,20.939753 
	C189.889984,20.837130 189.684464,20.776741 189.580032,20.474459 
	C188.979401,19.794331 188.483215,19.416485 187.989716,19.015131 
	C187.992416,18.991623 187.951340,19.015118 187.847412,18.741873 
	C187.164322,17.960371 186.585144,17.452114 185.869873,16.709404 
	C185.561447,16.420504 185.389114,16.366055 185.131058,16.100281 
	C184.703720,15.617397 184.362106,15.345839 183.858063,14.845987 
	C183.521484,14.550183 183.347321,14.482671 183.055878,14.166725 
	C182.340317,13.524006 181.742050,13.129722 181.024048,12.481230 
	C180.240356,11.899632 179.576370,11.572245 178.915268,11.158539 
	C178.918137,11.072223 178.746521,11.091854 178.646072,10.838995 
	C178.078217,10.330490 177.610794,10.074844 177.097626,9.887870 
	C177.051880,9.956541 177.181961,9.854981 177.056946,9.561110 
	C175.972092,8.825110 175.012222,8.382982 173.882477,7.668053 
	C172.896164,7.165672 172.079727,6.936093 171.155334,6.835257 
	C171.047379,6.963999 171.287750,6.729173 171.142914,6.440288 
	C169.990540,5.855130 168.983002,5.558857 167.775879,5.151340 
	C167.576263,5.040093 167.127411,4.953934 166.988556,4.661745 
	C166.252625,4.191034 165.655579,4.012513 164.900543,3.584942 
	C164.217545,3.128643 163.692505,2.921392 162.884827,2.553396 
	C161.734772,1.928435 160.867386,1.464221 160.000000,1.000003 
M593.887085,139.545227 
	C593.887085,139.545227 593.866760,139.504593 593.290955,139.679825 
	C592.922302,140.128006 592.553650,140.576187 591.889221,141.071030 
	C591.889221,141.071030 591.804016,141.358047 591.123474,141.567139 
	C589.260132,143.522156 587.396729,145.477188 585.659607,147.524963 
	C585.659607,147.524963 585.503540,147.511795 584.949341,147.792694 
	C584.756348,148.150635 584.563354,148.508575 583.930847,149.016083 
	C583.573975,149.500824 583.217163,149.985565 582.218811,150.783264 
	C567.950195,170.675644 564.821594,193.198486 571.165405,215.857086 
	C579.497498,245.617462 600.863892,256.932922 627.399719,260.162872 
	C638.989502,261.573578 650.568237,259.994812 661.587769,255.703262 
	C672.548950,251.434433 681.949524,244.961258 689.876038,235.830719 
	C682.276733,228.726303 675.041687,221.962479 668.831543,216.156815 
	C663.447876,220.290558 659.067749,224.581223 653.887207,227.401611 
	C647.088562,231.102936 639.275940,230.980576 631.616333,231.201813 
	C617.130310,231.620193 605.262817,221.161026 604.635132,205.109604 
	C605.992371,204.442856 607.345886,203.202850 608.707336,203.194138 
	C635.131836,203.024902 661.557251,202.999481 688.494080,203.160355 
	C688.667419,203.095230 688.840698,203.030106 689.614868,203.152145 
	C690.660583,202.099762 692.526062,201.107788 692.608826,199.984421 
	C692.950378,195.349335 692.952393,190.664154 692.714661,186.016022 
	C691.888306,169.861557 686.309021,155.647568 674.648804,144.209290 
	C657.426392,127.314682 628.286560,122.066719 604.338318,133.135849 
	C602.749084,133.934128 601.159912,134.732407 598.966064,135.686050 
	C597.436829,136.800735 595.907593,137.915405 594.424011,139.043213 
	C594.424011,139.043213 594.388489,139.039108 594.084534,139.219681 
	C594.084534,139.219681 593.892273,139.516403 593.887085,139.545227 
	...
"/> 
</svg>
